Coordinates
version=1
nRows=38
nColumns=12
inDegrees=yes

Units are S.I. units (second, meters, Newtons, ...)
Angles are in degrees

endheader
time	SC_y	SC_z	SC_x	AC_y	AC_z	AC_x	GH_y	GH_z	GH_yy	EL_x	PS_y
       0.0              -54.22          14.16          54.14          65.15         -19.55         -16.51          23.02          -3.01         -43.15          9.126          61.83
   0.02703              -54.22          14.16          54.15          65.15         -19.55         -16.51           23.0         -3.007         -43.16          9.128          61.82
   0.05405              -54.21          14.16          54.15          65.14         -19.54         -16.51          22.98         -3.003         -43.17           9.13          61.81
   0.08108              -54.21          14.16          54.15          65.14         -19.54          -16.5          22.96         -2.999         -43.19          9.132          61.81
    0.1081              -54.21          14.16          54.16          65.13         -19.54          -16.5          22.94         -2.994          -43.2          9.135           61.8
    0.1351               -54.2          14.16          54.16          65.13         -19.54          -16.5          22.91          -2.99         -43.21          9.137          61.79
    0.1622               -54.2          14.16          54.17          65.12         -19.53         -16.49          22.89         -2.985         -43.22           9.14          61.78
    0.1892              -54.19          14.16          54.17          65.12         -19.53         -16.49          22.86         -2.979         -43.24          9.143          61.77
    0.2162              -54.19          14.15          54.18          65.11         -19.53         -16.48          22.83         -2.974         -43.25          9.146          61.76
    0.2432              -54.19          14.15          54.18          65.11         -19.53         -16.48           22.8         -2.967         -43.27           9.15          61.75
    0.2703              -54.18          14.15          54.19           65.1         -19.52         -16.48          22.77         -2.961         -43.29          9.153          61.74
    0.2973              -54.17          14.15          54.19          65.09         -19.52         -16.47          22.73         -2.954         -43.31          9.157          61.73
    0.3243              -54.17          14.15           54.2          65.08         -19.51         -16.46          22.69         -2.946         -43.33          9.161          61.71
    0.3513              -54.16          14.15          54.21          65.08         -19.51         -16.46          22.65         -2.938         -43.35          9.166           61.7
    0.3784              -54.15          14.15          54.22          65.07         -19.51         -16.45           22.6         -2.929         -43.38          9.171          61.68
    0.4054              -54.15          14.15          54.23          65.06          -19.5         -16.44          22.55         -2.919          -43.4          9.176          61.66
    0.4324              -54.14          14.14          54.24          65.05         -19.49         -16.44           22.5         -2.909         -43.43          9.182          61.64
    0.4594              -54.13          14.14          54.25          65.03         -19.49         -16.43          22.44         -2.897         -43.46          9.188          61.62
    0.4865              -54.12          14.14          54.26          65.02         -19.48         -16.42          22.38         -2.885          -43.5          9.195           61.6
    0.5135              -54.11          14.14          54.27          65.01         -19.47         -16.41          22.31         -2.871         -43.53          9.203          61.58
    0.5405               -54.1          14.14          54.28          64.99         -19.47          -16.4          22.23         -2.856         -43.57          9.211          61.55
    0.5675              -54.08          14.14           54.3          64.98         -19.46         -16.38          22.15         -2.839         -43.62           9.22          61.52
    0.5946              -54.07          14.13          54.32          64.96         -19.45         -16.37          22.05         -2.821         -43.67           9.23          61.48
    0.6216              -54.05          14.13          54.33          64.94         -19.44         -16.35          21.95         -2.801         -43.72          9.242          61.45
    0.6486              -54.03          14.13          54.35          64.91         -19.43         -16.34          21.83         -2.778         -43.79          9.254          61.41
    0.6757              -54.01          14.12          54.38          64.89         -19.41         -16.32          21.71         -2.753         -43.85          9.268          61.36
    0.7027              -53.99          14.12           54.4          64.86          -19.4          -16.3          21.56         -2.725         -43.93          9.284          61.31
    0.7297              -53.97          14.11          54.43          64.83         -19.38         -16.27           21.4         -2.693         -44.02          9.301          61.25
    0.7567              -53.94          14.11          54.46          64.79         -19.36         -16.24          21.22         -2.658         -44.11          9.321          61.19
    0.7838              -53.91           14.1           54.5          64.75         -19.34         -16.21          21.01         -2.617         -44.23          9.343          61.11
    0.8108              -53.87           14.1          54.54           64.7         -19.32         -16.18          20.77         -2.571         -44.35          9.369          61.03
    0.8378              -53.83          14.09          54.59          64.65         -19.29         -16.14           20.5         -2.517          -44.5          9.398          60.93
    0.8648              -53.78          14.08          54.65          64.59         -19.25         -16.09          20.18         -2.456         -44.66          9.432          60.82
    0.8919              -53.72          14.07          54.71          64.52         -19.22         -16.04          19.82         -2.384         -44.86          9.472          60.69
    0.9189              -53.65          14.06          54.79          64.43         -19.17         -15.97          19.39         -2.301         -45.09          9.518          60.54
    0.9459              -53.57          14.04          54.88          64.33         -19.12          -15.9          18.89         -2.202         -45.35          9.572          60.36
    0.9729              -53.48          14.03          54.99          64.21         -19.06         -15.81          18.29         -2.085         -45.67          9.637          60.15
       1.0              -53.37          14.01          55.11          64.07         -18.98          -15.7          17.57         -1.945         -46.06          9.715          59.89
